solid AssimpScene
 facet normal 0 0 0
  outer loop
  vertex 0.0139999995 -0.010160001 9.1744834e-10
  vertex 0.0139999995 -0.00126896973 0.0145606752
  vertex 0.0139999995 -0.00126896973 0.101667009
  endloop
 endfacet

 facet normal 0 0 0
  outer loop
  vertex 0.0139999995 -0.010160001 9.1744834e-10
  vertex 0.0139999995 -0.00126896973 0.101667009
  vertex 0.0139999995 -0.0190510303 0.09148743
  endloop
 endfacet

 facet normal 0 0 0
  outer loop
  vertex 0.0139999995 -0.010160001 9.1744834e-10
  vertex 0.0139999995 -0.0190510303 0.09148743
  vertex 0.0139999995 -0.0346425511 0.0688088536
  endloop
 endfacet

 facet normal 0 0 0
  outer loop
  vertex 0.0139999995 -0.010160001 9.1744834e-10
  vertex 0.0139999995 -0.0346425511 0.0688088536
  vertex 0.0139999995 -0.0346425511 0.0145606752
  endloop
 endfacet

 facet normal 0 0 0
  outer loop
  vertex 0.0139999995 -0.010160001 9.1744834e-10
  vertex 0.0139999995 -0.0346425511 0.0145606752
  vertex 0.0139999995 -0.0181149375 9.1744834e-10
  endloop
 endfacet

 facet normal 0 0 0
  outer loop
  vertex 0.0139999995 -0.00126896973 0.0145606752
  vertex -0.0139999995 -0.00126896973 0.0145606752
  vertex -0.0139999995 -0.00126896973 0.101667009
  endloop
 endfacet

 facet normal 0 0 0
  outer loop
  vertex 0.0139999995 -0.00126896973 0.0145606752
  vertex -0.0139999995 -0.00126896973 0.101667009
  vertex 0.0139999995 -0.00126896973 0.101667009
  endloop
 endfacet

 facet normal 0 0 0
  outer loop
  vertex 0.0139999995 -0.0346425511 0.0145606752
  vertex 0.0139999995 -0.0346425511 0.0688088536
  vertex -0.0139999995 -0.0346425511 0.0688088536
  endloop
 endfacet

 facet normal 0 0 0
  outer loop
  vertex 0.0139999995 -0.0346425511 0.0145606752
  vertex -0.0139999995 -0.0346425511 0.0688088536
  vertex -0.0139999995 -0.0346425511 0.0145606752
  endloop
 endfacet

 facet normal 0 0 0
  outer loop
  vertex -0.0139999995 -0.0190510303 0.09148743
  vertex -0.0139999995 -0.0346425511 0.0688088536
  vertex 0.0139999995 -0.0346425511 0.0688088536
  endloop
 endfacet

 facet normal 0 0 0
  outer loop
  vertex -0.0139999995 -0.0190510303 0.09148743
  vertex 0.0139999995 -0.0346425511 0.0688088536
  vertex 0.0139999995 -0.0190510303 0.09148743
  endloop
 endfacet

 facet normal 0 0 0
  outer loop
  vertex -0.0139999995 -0.0190510303 0.09148743
  vertex 0.0139999995 -0.0190510303 0.09148743
  vertex 0.0139999995 -0.00126896973 0.101667009
  endloop
 endfacet

 facet normal 0 0 0
  outer loop
  vertex -0.0139999995 -0.0190510303 0.09148743
  vertex 0.0139999995 -0.00126896973 0.101667009
  vertex -0.0139999995 -0.00126896973 0.101667009
  endloop
 endfacet

 facet normal 0 0 0
  outer loop
  vertex 0.0139999995 -0.010160001 9.1744834e-10
  vertex -0.0139999995 -0.010160001 9.1744834e-10
  vertex -0.0139999995 -0.00126896973 0.0145606752
  endloop
 endfacet

 facet normal 0 0 0
  outer loop
  vertex 0.0139999995 -0.010160001 9.1744834e-10
  vertex -0.0139999995 -0.00126896973 0.0145606752
  vertex 0.0139999995 -0.00126896973 0.0145606752
  endloop
 endfacet

 facet normal 0 0 0
  outer loop
  vertex -0.0139999995 -0.0181149375 9.1744834e-10
  vertex -0.0139999995 -0.0346425511 0.0145606752
  vertex -0.0139999995 -0.0346425511 0.0688088536
  endloop
 endfacet

 facet normal 0 0 0
  outer loop
  vertex -0.0139999995 -0.0181149375 9.1744834e-10
  vertex -0.0139999995 -0.0346425511 0.0688088536
  vertex -0.0139999995 -0.0190510303 0.09148743
  endloop
 endfacet

 facet normal 0 0 0
  outer loop
  vertex -0.0139999995 -0.0181149375 9.1744834e-10
  vertex -0.0139999995 -0.0190510303 0.09148743
  vertex -0.0139999995 -0.00126896973 0.101667009
  endloop
 endfacet

 facet normal 0 0 0
  outer loop
  vertex -0.0139999995 -0.0181149375 9.1744834e-10
  vertex -0.0139999995 -0.00126896973 0.101667009
  vertex -0.0139999995 -0.00126896973 0.0145606752
  endloop
 endfacet

 facet normal 0 0 0
  outer loop
  vertex -0.0139999995 -0.0181149375 9.1744834e-10
  vertex -0.0139999995 -0.00126896973 0.0145606752
  vertex -0.0139999995 -0.010160001 9.1744834e-10
  endloop
 endfacet

 facet normal 0 0 0
  outer loop
  vertex -0.0139999995 -0.0181149375 9.1744834e-10
  vertex -0.0139999995 -0.010160001 9.1744834e-10
  vertex 0.0139999995 -0.010160001 9.1744834e-10
  endloop
 endfacet

 facet normal 0 0 0
  outer loop
  vertex -0.0139999995 -0.0181149375 9.1744834e-10
  vertex 0.0139999995 -0.010160001 9.1744834e-10
  vertex 0.0139999995 -0.0181149375 9.1744834e-10
  endloop
 endfacet

 facet normal 0 0 0
  outer loop
  vertex -0.0139999995 -0.0181149375 9.1744834e-10
  vertex 0.0139999995 -0.0181149375 9.1744834e-10
  vertex 0.0139999995 -0.0346425511 0.0145606752
  endloop
 endfacet

 facet normal 0 0 0
  outer loop
  vertex -0.0139999995 -0.0181149375 9.1744834e-10
  vertex 0.0139999995 -0.0346425511 0.0145606752
  vertex -0.0139999995 -0.0346425511 0.0145606752
  endloop
 endfacet

endsolid AssimpScene
